RBDS05runT35_grf
version=1
nRows=15
nColumns=19
inDegrees=no
endheader
time	ground_force_r_vx	ground_force_r_vy	ground_force_r_vz	ground_force_r_px	ground_force_r_py	ground_force_r_pz	ground_force_r_mx	ground_force_r_my	ground_force_r_mz	ground_force_l_vx	ground_force_l_vy	ground_force_l_vz	ground_force_l_px	ground_force_l_py	ground_force_l_pz	ground_force_l_mx	ground_force_l_my	ground_force_l_mz
      7.49900000	    145.31675805	    811.48863008	    -36.47252241	      2.06243182	      0.00000000	      1.10164789	     -0.00000000	      2.24951814	      0.00000000	      0.00000000	      0.00000000	      0.00000000	      0.00000000	      0.00000000	      0.00000000	      0.00000000	      0.00000000	      0.00000000
      7.50000000	    146.83039238	    796.65562548	    -35.52457956	      2.05926925	      0.00000000	      1.10158637	     -0.00000000	      2.32249640	      0.00000000	      0.00000000	      0.00000000	      0.00000000	      0.00000000	      0.00000000	      0.00000000	      0.00000000	      0.00000000	      0.00000000
      7.50100000	    147.84415363	    781.63717356	    -34.59880869	      2.05612101	      0.00000000	      1.10152199	     -0.00000000	      2.39184956	      0.00000000	      0.00000000	      0.00000000	      0.00000000	      0.00000000	      0.00000000	      0.00000000	      0.00000000	      0.00000000	      0.00000000
      7.50200000	    148.85791488	    766.61872163	    -33.67303781	      2.05297278	      0.00000000	      1.10145761	     -0.00000000	      2.46120272	      0.00000000	      0.00000000	      0.00000000	      0.00000000	      0.00000000	      0.00000000	      0.00000000	      0.00000000	      0.00000000	      0.00000000
      7.50300000	    149.87167613	    751.60026971	    -32.74726693	      2.04982454	      0.00000000	      1.10139324	     -0.00000000	      2.53055587	      0.00000000	      0.00000000	      0.00000000	      0.00000000	      0.00000000	      0.00000000	      0.00000000	      0.00000000	      0.00000000	      0.00000000
      7.50400000	    150.55084746	    736.50945843	    -31.84564216	      2.04669434	      0.00000000	      1.10132684	     -0.00000000	      2.59643060	      0.00000000	      0.00000000	      0.00000000	      0.00000000	      0.00000000	      0.00000000	      0.00000000	      0.00000000	      0.00000000	      0.00000000
      7.50500000	    151.06272384	    721.38246747	    -30.95609044	      2.04357316	      0.00000000	      1.10125943	     -0.00000000	      2.66056612	      0.00000000	      0.00000000	      0.00000000	      0.00000000	      0.00000000	      0.00000000	      0.00000000	      0.00000000	      0.00000000	      0.00000000
      7.50600000	    151.57460021	    706.25547651	    -30.06653871	      2.04045199	      0.00000000	      1.10119202	     -0.00000000	      2.72470164	      0.00000000	      0.00000000	      0.00000000	      0.00000000	      0.00000000	      0.00000000	      0.00000000	      0.00000000	      0.00000000	      0.00000000
      7.50700000	    151.92104062	    691.11950642	    -29.19326276	      2.03734451	      0.00000000	      1.10112351	     -0.00000000	      2.78657672	      0.00000000	      0.00000000	      0.00000000	      0.00000000	      0.00000000	      0.00000000	      0.00000000	      0.00000000	      0.00000000	      0.00000000
      7.50800000	    151.93660909	    675.96557803	    -28.35253833	      2.03426443	      0.00000000	      1.10105278	     -0.00000000	      2.84393091	      0.00000000	      0.00000000	      0.00000000	      0.00000000	      0.00000000	      0.00000000	      0.00000000	      0.00000000	      0.00000000	      0.00000000
      7.50900000	    151.95217756	    660.81164965	    -27.51181390	      2.03118435	      0.00000000	      1.10098206	     -0.00000000	      2.90128511	      0.00000000	      0.00000000	      0.00000000	      0.00000000	      0.00000000	      0.00000000	      0.00000000	      0.00000000	      0.00000000	      0.00000000
      7.51000000	    151.96774604	    645.65772127	    -26.67108948	      2.02810427	      0.00000000	      1.10091134	     -0.00000000	      2.95863931	      0.00000000	      0.00000000	      0.00000000	      0.00000000	      0.00000000	      0.00000000	      0.00000000	      0.00000000	      0.00000000	      0.00000000
      7.51100000	    151.50060363	    630.56274752	    -25.89008922	      2.02508032	      0.00000000	      1.10083694	     -0.00000000	      3.00772480	      0.00000000	      0.00000000	      0.00000000	      0.00000000	      0.00000000	      0.00000000	      0.00000000	      0.00000000	      0.00000000	      0.00000000
      7.51200000	    151.03346123	    615.46777377	    -25.10908896	      2.02205636	      0.00000000	      1.10076254	     -0.00000000	      3.05681029	      0.00000000	      0.00000000	      0.00000000	      0.00000000	      0.00000000	      0.00000000	      0.00000000	      0.00000000	      0.00000000	      0.00000000
      7.51300000	    150.56631882	    600.37280003	    -24.32808870	      2.01903240	      0.00000000	      1.10068814	     -0.00000000	      3.10589579	      0.00000000	      0.00000000	      0.00000000	      0.00000000	      0.00000000	      0.00000000	      0.00000000	      0.00000000	      0.00000000	      0.00000000
